Oxanium-ExtraLight.ufo
<glyph name="dollar" format="2">
  <advance width="578"/>
  <unicode hex="0024"/>
  <outline>
    <contour>
      <point x="76" y="25" type="line"/>
      <point x="76" y="44" type="line"/>
      <point x="363" y="44" type="line" smooth="yes"/>
      <point x="454" y="44"/>
      <point x="454" y="134" type="qcurve" smooth="yes"/>
      <point x="454" y="207" type="line" smooth="yes"/>
      <point x="454" y="281"/>
      <point x="387" y="294" type="qcurve" smooth="yes"/>
      <point x="180" y="336" type="line" smooth="yes"/>
      <point x="76" y="356"/>
      <point x="76" y="476" type="qcurve" smooth="yes"/>
      <point x="76" y="516" type="line" smooth="yes"/>
      <point x="76" y="660"/>
      <point x="220" y="660" type="qcurve" smooth="yes"/>
      <point x="269" y="660" type="line"/>
      <point x="269" y="780" type="line"/>
      <point x="309" y="780" type="line"/>
      <point x="309" y="660" type="line"/>
      <point x="450" y="660" type="line"/>
      <point x="482" y="635" type="line"/>
      <point x="482" y="616" type="line"/>
      <point x="215" y="616" type="line" smooth="yes"/>
      <point x="124" y="616"/>
      <point x="124" y="526" type="qcurve" smooth="yes"/>
      <point x="124" y="467" type="line" smooth="yes"/>
      <point x="124" y="392"/>
      <point x="191" y="379" type="qcurve" smooth="yes"/>
      <point x="398" y="338" type="line" smooth="yes"/>
      <point x="502" y="317"/>
      <point x="502" y="198" type="qcurve" smooth="yes"/>
      <point x="502" y="144" type="line" smooth="yes"/>
      <point x="502" y="0"/>
      <point x="358" y="0" type="qcurve" smooth="yes"/>
      <point x="309" y="0" type="line"/>
      <point x="309" y="-120" type="line"/>
      <point x="269" y="-120" type="line"/>
      <point x="269" y="0" type="line"/>
      <point x="108" y="0" type="line"/>
    </contour>
  </outline>
</glyph>
<glyph name="quotesingle" format="2">
  <advance width="194"/>
  <unicode hex="0027"/>
  <outline>
    <contour>
      <point x="75" y="502" type="line"/>
      <point x="75" y="740" type="line"/>
      <point x="119" y="740" type="line"/>
      <point x="119" y="502" type="line"/>
    </contour>
  </outline>
</glyph>
<glyph name="parenleft" format="2">
  <advance width="288"/>
  <unicode hex="0028"/>
  <outline>
    <contour>
      <point x="233" y="764" type="qcurve"/>
      <point x="266" y="738" type="line"/>
      <point x="121" y="541"/>
      <point x="121" y="39"/>
      <point x="266" y="-158" type="qcurve"/>
      <point x="233" y="-184" type="line"/>
      <point x="76" y="26"/>
      <point x="76" y="554"/>
    </contour>
  </outline>
</glyph>
<glyph name="asterisk" format="2">
  <advance width="492"/>
  <unicode hex="002A"/>
  <outline>
    <contour>
      <point x="41" y="529" type="line"/>
      <point x="52" y="560" type="line"/>
      <point x="227" y="507" type="line"/>
      <point x="227" y="690" type="line"/>
      <point x="265" y="690" type="line"/>
      <point x="265" y="507" type="line"/>
      <point x="439" y="560" type="line"/>
      <point x="451" y="529" type="line"/>
      <point x="278" y="470" type="line"/>
      <point x="383" y="321" type="line"/>
      <point x="355" y="301" type="line"/>
      <point x="246" y="445" type="line"/>
      <point x="137" y="301" type="line"/>
      <point x="109" y="321" type="line"/>
      <point x="214" y="470" type="line"/>
    </contour>
  </outline>
</glyph>
<glyph name="plus" format="2">
  <advance width="578"/>
  <unicode hex="002B"/>
  <outline>
    <contour>
      <point x="66" y="314" type="line"/>
      <point x="66" y="356" type="line"/>
      <point x="267" y="356" type="line"/>
      <point x="267" y="570" type="line"/>
      <point x="311" y="570" type="line"/>
      <point x="311" y="356" type="line"/>
      <point x="512" y="356" type="line"/>
      <point x="512" y="314" type="line"/>
      <point x="311" y="314" type="line"/>
      <point x="311" y="100" type="line"/>
      <point x="267" y="100" type="line"/>
      <point x="267" y="314" type="line"/>
    </contour>
  </outline>
</glyph>
<glyph name="slash" format="2">
  <advance width="362"/>
  <unicode hex="002F"/>
  <outline>
    <contour>
      <point x="20" y="-30" type="line"/>
      <point x="302" y="735" type="line"/>
      <point x="342" y="720" type="line"/>
      <point x="61" y="-45" type="line"/>
    </contour>
  </outline>
</glyph>
<glyph name="zero" format="2">
  <advance width="578"/>
  <unicode hex="0030"/>
  <outline>
    <contour>
      <point x="71" y="144" type="qcurve" smooth="yes"/>
      <point x="71" y="546" type="line" smooth="yes"/>
      <point x="71" y="690"/>
      <point x="215" y="690" type="qcurve" smooth="yes"/>
      <point x="363" y="690" type="line" smooth="yes"/>
      <point x="507" y="690"/>
      <point x="507" y="546" type="qcurve" smooth="yes"/>
      <point x="507" y="144" type="line" smooth="yes"/>
      <point x="507" y="0"/>
      <point x="363" y="0" type="qcurve" smooth="yes"/>
      <point x="215" y="0" type="line" smooth="yes"/>
      <point x="71" y="0"/>
    </contour>
    <contour>
      <point x="119" y="134" type="line" smooth="yes"/>
      <point x="119" y="44"/>
      <point x="210" y="44" type="qcurve" smooth="yes"/>
      <point x="368" y="44" type="line" smooth="yes"/>
      <point x="459" y="44"/>
      <point x="459" y="134" type="qcurve" smooth="yes"/>
      <point x="459" y="556" type="line" smooth="yes"/>
      <point x="459" y="646"/>
      <point x="368" y="646" type="qcurve" smooth="yes"/>
      <point x="210" y="646" type="line" smooth="yes"/>
      <point x="119" y="646"/>
      <point x="119" y="556" type="qcurve" smooth="yes"/>
    </contour>
  </outline>
</glyph>
<glyph name="three" format="2">
  <advance width="578"/>
  <unicode hex="0033"/>
  <outline>
    <contour>
      <point x="81" y="25" type="line"/>
      <point x="81" y="44" type="line"/>
      <point x="368" y="44" type="line" smooth="yes"/>
      <point x="459" y="44"/>
      <point x="459" y="134" type="qcurve" smooth="yes"/>
      <point x="459" y="254" type="line" smooth="yes"/>
      <point x="459" y="344"/>
      <point x="368" y="344" type="qcurve" smooth="yes"/>
      <point x="155" y="344" type="line"/>
      <point x="155" y="388" type="line"/>
      <point x="368" y="388" type="line" smooth="yes"/>
      <point x="459" y="388"/>
      <point x="459" y="479" type="qcurve" smooth="yes"/>
      <point x="459" y="556" type="line" smooth="yes"/>
      <point x="459" y="646"/>
      <point x="368" y="646" type="qcurve" smooth="yes"/>
      <point x="91" y="646" type="line"/>
      <point x="91" y="665" type="line"/>
      <point x="123" y="690" type="line"/>
      <point x="363" y="690" type="line" smooth="yes"/>
      <point x="507" y="690"/>
      <point x="507" y="546" type="qcurve" smooth="yes"/>
      <point x="507" y="468" type="line" smooth="yes"/>
      <point x="507" y="428"/>
      <point x="482" y="403" type="qcurve" smooth="yes"/>
      <point x="447" y="368" type="line"/>
      <point x="482" y="333" type="line" smooth="yes"/>
      <point x="507" y="308"/>
      <point x="507" y="268" type="qcurve" smooth="yes"/>
      <point x="507" y="144" type="line" smooth="yes"/>
      <point x="507" y="0"/>
      <point x="363" y="0" type="qcurve" smooth="yes"/>
      <point x="113" y="0" type="line"/>
    </contour>
  </outline>
</glyph>
<glyph name="four" format="2">
  <advance width="578"/>
  <unicode hex="0034"/>
  <outline>
    <contour>
      <point x="71" y="145" type="line"/>
      <point x="71" y="186" type="line"/>
      <point x="314" y="690" type="line"/>
      <point x="353" y="690" type="line"/>
      <point x="360" y="676" type="line"/>
      <point x="125" y="189" type="line"/>
      <point x="459" y="189" type="line"/>
      <point x="459" y="430" type="line"/>
      <point x="507" y="430" type="line"/>
      <point x="507" y="0" type="line"/>
      <point x="459" y="0" type="line"/>
      <point x="459" y="145" type="line"/>
    </contour>
  </outline>
</glyph>
<glyph name="five" format="2">
  <advance width="578"/>
  <unicode hex="0035"/>
  <outline>
    <contour>
      <point x="61" y="25" type="line"/>
      <point x="61" y="44" type="line"/>
      <point x="368" y="44" type="line" smooth="yes"/>
      <point x="459" y="44"/>
      <point x="459" y="134" type="qcurve" smooth="yes"/>
      <point x="459" y="264" type="line" smooth="yes"/>
      <point x="459" y="354"/>
      <point x="368" y="354" type="qcurve" smooth="yes"/>
      <point x="71" y="354" type="line"/>
      <point x="71" y="690" type="line"/>
      <point x="477" y="690" type="line"/>
      <point x="477" y="646" type="line"/>
      <point x="119" y="646" type="line"/>
      <point x="119" y="398" type="line"/>
      <point x="363" y="398" type="line" smooth="yes"/>
      <point x="507" y="398"/>
      <point x="507" y="254" type="qcurve" smooth="yes"/>
      <point x="507" y="144" type="line" smooth="yes"/>
      <point x="507" y="0"/>
      <point x="363" y="0" type="qcurve" smooth="yes"/>
      <point x="93" y="0" type="line"/>
    </contour>
  </outline>
</glyph>
<glyph name="six" format="2">
  <advance width="578"/>
  <unicode hex="0036"/>
  <outline>
    <contour>
      <point x="71" y="144" type="qcurve" smooth="yes"/>
      <point x="71" y="517" type="line" smooth="yes"/>
      <point x="71" y="690"/>
      <point x="244" y="690" type="qcurve" smooth="yes"/>
      <point x="435" y="690" type="line"/>
      <point x="467" y="665" type="line"/>
      <point x="467" y="646" type="line"/>
      <point x="240" y="646" type="line" smooth="yes"/>
      <point x="119" y="646"/>
      <point x="119" y="525" type="qcurve" smooth="yes"/>
      <point x="119" y="398" type="line"/>
      <point x="363" y="398" type="line" smooth="yes"/>
      <point x="507" y="398"/>
      <point x="507" y="254" type="qcurve" smooth="yes"/>
      <point x="507" y="144" type="line" smooth="yes"/>
      <point x="507" y="0"/>
      <point x="363" y="0" type="qcurve" smooth="yes"/>
      <point x="215" y="0" type="line" smooth="yes"/>
      <point x="71" y="0"/>
    </contour>
    <contour>
      <point x="119" y="134" type="line" smooth="yes"/>
      <point x="119" y="44"/>
      <point x="210" y="44" type="qcurve" smooth="yes"/>
      <point x="368" y="44" type="line" smooth="yes"/>
      <point x="459" y="44"/>
      <point x="459" y="134" type="qcurve" smooth="yes"/>
      <point x="459" y="264" type="line" smooth="yes"/>
      <point x="459" y="354"/>
      <point x="368" y="354" type="qcurve" smooth="yes"/>
      <point x="119" y="354" type="line"/>
    </contour>
  </outline>
</glyph>
<glyph name="A" format="2">
  <advance width="608"/>
  <unicode hex="0041"/>
  <outline>
    <contour>
      <point x="21" y="13" type="line"/>
      <point x="260" y="690" type="line"/>
      <point x="349" y="690" type="line"/>
      <point x="587" y="13" type="line"/>
      <point x="579" y="0" type="line"/>
      <point x="540" y="0" type="line"/>
      <point x="474" y="194" type="line"/>
      <point x="134" y="194" type="line"/>
      <point x="68" y="0" type="line"/>
      <point x="30" y="0" type="line"/>
    </contour>
    <contour>
      <point x="151" y="238" type="line"/>
      <point x="458" y="238" type="line"/>
      <point x="319" y="646" type="line"/>
      <point x="290" y="646" type="line"/>
    </contour>
  </outline>
</glyph>
<glyph name="B" format="2">
  <advance width="639"/>
  <unicode hex="0042"/>
  <outline>
    <contour>
      <point x="95" y="0" type="line"/>
      <point x="95" y="690" type="line"/>
      <point x="406" y="690" type="line" smooth="yes"/>
      <point x="550" y="690"/>
      <point x="550" y="546" type="qcurve" smooth="yes"/>
      <point x="550" y="472" type="line" smooth="yes"/>
      <point x="550" y="438"/>
      <point x="530" y="414" type="qcurve" smooth="yes"/>
      <point x="495" y="372" type="line"/>
      <point x="537" y="337" type="line" smooth="yes"/>
      <point x="570" y="310"/>
      <point x="570" y="257" type="qcurve" smooth="yes"/>
      <point x="570" y="144" type="line" smooth="yes"/>
      <point x="570" y="0"/>
      <point x="426" y="0" type="qcurve" smooth="yes"/>
    </contour>
    <contour>
      <point x="143" y="44" type="line"/>
      <point x="432" y="44" type="line" smooth="yes"/>
      <point x="522" y="44"/>
      <point x="522" y="134" type="qcurve" smooth="yes"/>
      <point x="522" y="254" type="line" smooth="yes"/>
      <point x="522" y="344"/>
      <point x="432" y="344" type="qcurve" smooth="yes"/>
      <point x="143" y="344" type="line"/>
    </contour>
    <contour>
      <point x="143" y="388" type="line"/>
      <point x="412" y="388" type="line" smooth="yes"/>
      <point x="502" y="388"/>
      <point x="502" y="479" type="qcurve" smooth="yes"/>
      <point x="502" y="556" type="line" smooth="yes"/>
      <point x="502" y="646"/>
      <point x="412" y="646" type="qcurve" smooth="yes"/>
      <point x="143" y="646" type="line"/>
    </contour>
  </outline>
</glyph>
<glyph name="C" format="2">
  <advance width="602"/>
  <unicode hex="0043"/>
  <outline>
    <contour>
      <point x="85" y="144" type="qcurve" smooth="yes"/>
      <point x="85" y="546" type="line" smooth="yes"/>
      <point x="85" y="690"/>
      <point x="229" y="690" type="qcurve" smooth="yes"/>
      <point x="520" y="690" type="line"/>
      <point x="552" y="665" type="line"/>
      <point x="552" y="646" type="line"/>
      <point x="224" y="646" type="line" smooth="yes"/>
      <point x="133" y="646"/>
      <point x="133" y="556" type="qcurve" smooth="yes"/>
      <point x="133" y="134" type="line" smooth="yes"/>
      <point x="133" y="44"/>
      <point x="224" y="44" type="qcurve" smooth="yes"/>
      <point x="552" y="44" type="line"/>
      <point x="552" y="25" type="line"/>
      <point x="520" y="0" type="line"/>
      <point x="229" y="0" type="line" smooth="yes"/>
      <point x="85" y="0"/>
    </contour>
  </outline>
</glyph>
<glyph name="D" format="2">
  <advance width="675"/>
  <unicode hex="0044"/>
  <outline>
    <contour>
      <point x="95" y="0" type="line"/>
      <point x="95" y="690" type="line"/>
      <point x="370" y="690" type="line" smooth="yes"/>
      <point x="600" y="690"/>
      <point x="600" y="459" type="qcurve" smooth="yes"/>
      <point x="600" y="231" type="line" smooth="yes"/>
      <point x="600" y="0"/>
      <point x="370" y="0" type="qcurve" smooth="yes"/>
    </contour>
    <contour>
      <point x="143" y="44" type="line"/>
      <point x="373" y="44" type="line" smooth="yes"/>
      <point x="552" y="44"/>
      <point x="552" y="223" type="qcurve" smooth="yes"/>
      <point x="552" y="467" type="line" smooth="yes"/>
      <point x="552" y="646"/>
      <point x="373" y="646" type="qcurve" smooth="yes"/>
      <point x="143" y="646" type="line"/>
    </contour>
  </outline>
</glyph>
<glyph name="I" format="2">
  <advance width="238"/>
  <unicode hex="0049"/>
  <outline>
    <contour>
      <point x="95" y="0" type="line"/>
      <point x="95" y="690" type="line"/>
      <point x="143" y="690" type="line"/>
      <point x="143" y="0" type="line"/>
    </contour>
  </outline>
</glyph>
<glyph name="J" format="2">
  <advance width="599"/>
  <unicode hex="004A"/>
  <outline>
    <contour>
      <point x="65" y="144" type="qcurve" smooth="yes"/>
      <point x="65" y="236" type="line"/>
      <point x="113" y="236" type="line"/>
      <point x="113" y="134" type="line" smooth="yes"/>
      <point x="113" y="44"/>
      <point x="204" y="44" type="qcurve" smooth="yes"/>
      <point x="372" y="44" type="line" smooth="yes"/>
      <point x="462" y="44"/>
      <point x="462" y="134" type="qcurve" smooth="yes"/>
      <point x="462" y="646" type="line"/>
      <point x="214" y="646" type="line"/>
      <point x="214" y="690" type="line"/>
      <point x="510" y="690" type="line"/>
      <point x="510" y="144" type="line" smooth="yes"/>
      <point x="510" y="0"/>
      <point x="366" y="0" type="qcurve" smooth="yes"/>
      <point x="209" y="0" type="line" smooth="yes"/>
      <point x="65" y="0"/>
    </contour>
  </outline>
</glyph>
<glyph name="L" format="2">
  <advance width="526"/>
  <unicode hex="004C"/>
  <outline>
    <contour>
      <point x="95" y="0" type="line"/>
      <point x="95" y="690" type="line"/>
      <point x="143" y="690" type="line"/>
      <point x="143" y="44" type="line"/>
      <point x="502" y="44" type="line"/>
      <point x="502" y="0" type="line"/>
    </contour>
  </outline>
</glyph>
<glyph name="O" format="2">
  <advance width="695"/>
  <unicode hex="004F"/>
  <outline>
    <contour>
      <point x="85" y="144" type="qcurve" smooth="yes"/>
      <point x="85" y="546" type="line" smooth="yes"/>
      <point x="85" y="690"/>
      <point x="229" y="690" type="qcurve" smooth="yes"/>
      <point x="466" y="690" type="line" smooth="yes"/>
      <point x="610" y="690"/>
      <point x="610" y="546" type="qcurve" smooth="yes"/>
      <point x="610" y="144" type="line" smooth="yes"/>
      <point x="610" y="0"/>
      <point x="466" y="0" type="qcurve" smooth="yes"/>
      <point x="229" y="0" type="line" smooth="yes"/>
      <point x="85" y="0"/>
    </contour>
    <contour>
      <point x="133" y="134" type="line" smooth="yes"/>
      <point x="133" y="44"/>
      <point x="224" y="44" type="qcurve" smooth="yes"/>
      <point x="472" y="44" type="line" smooth="yes"/>
      <point x="562" y="44"/>
      <point x="562" y="134" type="qcurve" smooth="yes"/>
      <point x="562" y="556" type="line" smooth="yes"/>
      <point x="562" y="646"/>
      <point x="472" y="646" type="qcurve" smooth="yes"/>
      <point x="224" y="646" type="line" smooth="yes"/>
      <point x="133" y="646"/>
      <point x="133" y="556" type="qcurve" smooth="yes"/>
    </contour>
  </outline>
</glyph>
<glyph name="P" format="2">
  <advance width="625"/>
  <unicode hex="0050"/>
  <outline>
    <contour>
      <point x="95" y="0" type="line"/>
      <point x="95" y="690" type="line"/>
      <point x="416" y="690" type="line" smooth="yes"/>
      <point x="560" y="690"/>
      <point x="560" y="546" type="qcurve" smooth="yes"/>
      <point x="560" y="418" type="line" smooth="yes"/>
      <point x="560" y="274"/>
      <point x="416" y="274" type="qcurve" smooth="yes"/>
      <point x="143" y="274" type="line"/>
      <point x="143" y="0" type="line"/>
    </contour>
    <contour>
      <point x="143" y="318" type="line"/>
      <point x="422" y="318" type="line" smooth="yes"/>
      <point x="512" y="318"/>
      <point x="512" y="409" type="qcurve" smooth="yes"/>
      <point x="512" y="556" type="line" smooth="yes"/>
      <point x="512" y="646"/>
      <point x="422" y="646" type="qcurve" smooth="yes"/>
      <point x="143" y="646" type="line"/>
    </contour>
  </outline>
</glyph>
<glyph name="T" format="2">
  <advance width="580"/>
  <unicode hex="0054"/>
  <outline>
    <contour>
      <point x="24" y="646" type="line"/>
      <point x="24" y="690" type="line"/>
      <point x="556" y="690" type="line"/>
      <point x="556" y="646" type="line"/>
      <point x="314" y="646" type="line"/>
      <point x="314" y="0" type="line"/>
      <point x="266" y="0" type="line"/>
      <point x="266" y="646" type="line"/>
    </contour>
  </outline>
</glyph>
<glyph name="W" format="2">
  <advance width="898"/>
  <unicode hex="0057"/>
  <outline>
    <contour>
      <point x="31" y="677" type="line"/>
      <point x="40" y="690" type="line"/>
      <point x="76" y="690" type="line"/>
      <point x="240" y="44" type="line"/>
      <point x="255" y="44" type="line"/>
      <point x="425" y="608" type="line"/>
      <point x="474" y="608" type="line"/>
      <point x="643" y="44" type="line"/>
      <point x="659" y="44" type="line"/>
      <point x="822" y="690" type="line"/>
      <point x="858" y="690" type="line"/>
      <point x="867" y="677" type="line"/>
      <point x="694" y="0" type="line"/>
      <point x="609" y="0" type="line"/>
      <point x="449" y="547" type="line"/>
      <point x="289" y="0" type="line"/>
      <point x="205" y="0" type="line"/>
    </contour>
  </outline>
</glyph>
<glyph name="Z" format="2">
  <advance width="595"/>
  <unicode hex="005A"/>
  <outline>
    <contour>
      <point x="55" y="0" type="line"/>
      <point x="55" y="40" type="line"/>
      <point x="473" y="646" type="line"/>
      <point x="65" y="646" type="line"/>
      <point x="65" y="690" type="line"/>
      <point x="530" y="690" type="line"/>
      <point x="530" y="650" type="line"/>
      <point x="112" y="44" type="line"/>
      <point x="540" y="44" type="line"/>
      <point x="540" y="0" type="line"/>
    </contour>
  </outline>
</glyph>
<glyph name="backslash" format="2">
  <advance width="362"/>
  <unicode hex="005C"/>
  <outline>
    <contour>
      <point x="20" y="720" type="line"/>
      <point x="61" y="735" type="line"/>
      <point x="342" y="-30" type="line"/>
      <point x="302" y="-45" type="line"/>
    </contour>
  </outline>
</glyph>
<glyph name="f" format="2">
  <advance width="361"/>
  <unicode hex="0066"/>
  <outline>
    <contour>
      <point x="85" y="0" type="line"/>
      <point x="85" y="597" type="line" smooth="yes"/>
      <point x="85" y="740"/>
      <point x="228" y="740" type="qcurve" smooth="yes"/>
      <point x="313" y="740" type="line"/>
      <point x="341" y="719" type="line"/>
      <point x="341" y="700" type="line"/>
      <point x="223" y="700" type="line" smooth="yes"/>
      <point x="130" y="700"/>
      <point x="130" y="607" type="qcurve" smooth="yes"/>
      <point x="130" y="515" type="line"/>
      <point x="331" y="515" type="line"/>
      <point x="331" y="475" type="line"/>
      <point x="130" y="475" type="line"/>
      <point x="130" y="0" type="line"/>
    </contour>
  </outline>
</glyph>
<glyph name="m" format="2">
  <advance width="891"/>
  <unicode hex="006D"/>
  <outline>
    <contour>
      <point x="85" y="0" type="line"/>
      <point x="85" y="515" type="line"/>
      <point x="668" y="515" type="line" smooth="yes"/>
      <point x="810" y="515"/>
      <point x="810" y="372" type="qcurve" smooth="yes"/>
      <point x="810" y="0" type="line"/>
      <point x="765" y="0" type="line"/>
      <point x="765" y="382" type="line" smooth="yes"/>
      <point x="765" y="475"/>
      <point x="672" y="475" type="qcurve" smooth="yes"/>
      <point x="470" y="475" type="line"/>
      <point x="470" y="0" type="line"/>
      <point x="425" y="0" type="line"/>
      <point x="425" y="475" type="line"/>
      <point x="130" y="475" type="line"/>
      <point x="130" y="0" type="line"/>
    </contour>
  </outline>
</glyph>
<glyph name="s" format="2">
  <advance width="495"/>
  <unicode hex="0073"/>
  <outline>
    <contour>
      <point x="63" y="21" type="line"/>
      <point x="63" y="40" type="line"/>
      <point x="295" y="40" type="line" smooth="yes"/>
      <point x="386" y="40"/>
      <point x="386" y="129" type="qcurve" smooth="yes"/>
      <point x="386" y="219"/>
      <point x="314" y="231" type="qcurve" smooth="yes"/>
      <point x="188" y="252" type="line" smooth="yes"/>
      <point x="63" y="273"/>
      <point x="63" y="382" type="qcurve" smooth="yes"/>
      <point x="63" y="515"/>
      <point x="207" y="515" type="qcurve" smooth="yes"/>
      <point x="380" y="515" type="line"/>
      <point x="408" y="494" type="line"/>
      <point x="408" y="475" type="line"/>
      <point x="200" y="475" type="line" smooth="yes"/>
      <point x="108" y="475"/>
      <point x="108" y="386" type="qcurve" smooth="yes"/>
      <point x="108" y="309"/>
      <point x="184" y="296" type="qcurve" smooth="yes"/>
      <point x="310" y="275" type="line" smooth="yes"/>
      <point x="432" y="255"/>
      <point x="432" y="134" type="qcurve" smooth="yes"/>
      <point x="432" y="0"/>
      <point x="287" y="0" type="qcurve" smooth="yes"/>
      <point x="91" y="0" type="line"/>
    </contour>
  </outline>
</glyph>
<glyph name="u" format="2">
  <advance width="581"/>
  <unicode hex="0075"/>
  <outline>
    <contour>
      <point x="81" y="143" type="qcurve" smooth="yes"/>
      <point x="81" y="515" type="line"/>
      <point x="126" y="515" type="line"/>
      <point x="126" y="133" type="line" smooth="yes"/>
      <point x="126" y="40"/>
      <point x="219" y="40" type="qcurve" smooth="yes"/>
      <point x="451" y="40" type="line"/>
      <point x="451" y="515" type="line"/>
      <point x="496" y="515" type="line"/>
      <point x="496" y="0" type="line"/>
      <point x="224" y="0" type="line" smooth="yes"/>
      <point x="81" y="0"/>
    </contour>
  </outline>
</glyph>
<glyph name="v" format="2">
  <advance width="498"/>
  <unicode hex="0076"/>
  <outline>
    <contour>
      <point x="21" y="505" type="line"/>
      <point x="27" y="515" type="line"/>
      <point x="66" y="515" type="line"/>
      <point x="236" y="40" type="line"/>
      <point x="262" y="40" type="line"/>
      <point x="432" y="515" type="line"/>
      <point x="471" y="515" type="line"/>
      <point x="477" y="505" type="line"/>
      <point x="293" y="0" type="line"/>
      <point x="206" y="0" type="line"/>
    </contour>
  </outline>
</glyph>
<glyph name="w" format="2">
  <advance width="760"/>
  <unicode hex="0077"/>
  <outline>
    <contour>
      <point x="25" y="505" type="line"/>
      <point x="32" y="515" type="line"/>
      <point x="68" y="515" type="line"/>
      <point x="190" y="40" type="line"/>
      <point x="208" y="40" type="line"/>
      <point x="353" y="515" type="line"/>
      <point x="407" y="515" type="line"/>
      <point x="552" y="40" type="line"/>
      <point x="571" y="40" type="line"/>
      <point x="693" y="515" type="line"/>
      <point x="728" y="515" type="line"/>
      <point x="735" y="505" type="line"/>
      <point x="604" y="0" type="line"/>
      <point x="522" y="0" type="line"/>
      <point x="380" y="468" type="line"/>
      <point x="238" y="0" type="line"/>
      <point x="157" y="0" type="line"/>
    </contour>
  </outline>
</glyph>
<glyph name="braceleft" format="2">
  <advance width="356"/>
  <unicode hex="007B"/>
  <outline>
    <contour>
      <point x="50" y="281" type="line"/>
      <point x="50" y="305" type="line"/>
      <point x="146" y="401" type="line"/>
      <point x="146" y="617" type="line" smooth="yes"/>
      <point x="146" y="760"/>
      <point x="289" y="760" type="qcurve" smooth="yes"/>
      <point x="326" y="760" type="line"/>
      <point x="326" y="720" type="line"/>
      <point x="284" y="720" type="line" smooth="yes"/>
      <point x="191" y="720"/>
      <point x="191" y="627" type="qcurve" smooth="yes"/>
      <point x="191" y="388" type="line"/>
      <point x="94" y="293" type="line"/>
      <point x="191" y="198" type="line"/>
      <point x="191" y="-47" type="line" smooth="yes"/>
      <point x="191" y="-140"/>
      <point x="284" y="-140" type="qcurve" smooth="yes"/>
      <point x="326" y="-140" type="line"/>
      <point x="326" y="-180" type="line"/>
      <point x="289" y="-180" type="line" smooth="yes"/>
      <point x="146" y="-180"/>
      <point x="146" y="-37" type="qcurve" smooth="yes"/>
      <point x="146" y="185" type="line"/>
    </contour>
  </outline>
</glyph>
<glyph name="asciitilde" format="2">
  <advance width="578"/>
  <unicode hex="007E"/>
  <outline>
    <contour>
      <point x="59" y="295" type="line"/>
      <point x="146" y="381" type="line" smooth="yes"/>
      <point x="174" y="410"/>
      <point x="244" y="410"/>
      <point x="272" y="381" type="qcurve" smooth="yes"/>
      <point x="331" y="323" type="line" smooth="yes"/>
      <point x="351" y="303"/>
      <point x="387" y="303"/>
      <point x="407" y="323" type="qcurve" smooth="yes"/>
      <point x="489" y="405" type="line"/>
      <point x="519" y="375" type="line"/>
      <point x="432" y="289" type="line" smooth="yes"/>
      <point x="404" y="260"/>
      <point x="334" y="260"/>
      <point x="306" y="289" type="qcurve" smooth="yes"/>
      <point x="247" y="347" type="line" smooth="yes"/>
      <point x="227" y="367"/>
      <point x="191" y="367"/>
      <point x="171" y="347" type="qcurve" smooth="yes"/>
      <point x="89" y="265" type="line"/>
    </contour>
  </outline>
</glyph>
<glyph name="cent" format="2">
  <advance width="578"/>
  <unicode hex="00A2"/>
  <outline>
    <contour>
      <point x="101" y="143" type="qcurve" smooth="yes"/>
      <point x="101" y="372" type="line" smooth="yes"/>
      <point x="101" y="515"/>
      <point x="244" y="515" type="qcurve" smooth="yes"/>
      <point x="297" y="515" type="line"/>
      <point x="297" y="625" type="line"/>
      <point x="335" y="625" type="line"/>
      <point x="335" y="515" type="line"/>
      <point x="446" y="515" type="line"/>
      <point x="474" y="494" type="line"/>
      <point x="474" y="475" type="line"/>
      <point x="239" y="475" type="line" smooth="yes"/>
      <point x="146" y="475"/>
      <point x="146" y="382" type="qcurve" smooth="yes"/>
      <point x="146" y="133" type="line" smooth="yes"/>
      <point x="146" y="40"/>
      <point x="239" y="40" type="qcurve" smooth="yes"/>
      <point x="474" y="40" type="line"/>
      <point x="474" y="21" type="line"/>
      <point x="446" y="0" type="line"/>
      <point x="335" y="0" type="line"/>
      <point x="335" y="-110" type="line"/>
      <point x="297" y="-110" type="line"/>
      <point x="297" y="0" type="line"/>
      <point x="244" y="0" type="line" smooth="yes"/>
      <point x="101" y="0"/>
    </contour>
  </outline>
</glyph>
<glyph name="currency" format="2">
  <advance width="578"/>
  <unicode hex="00A4"/>
  <outline>
    <contour>
      <point x="67" y="148" type="line"/>
      <point x="138" y="219" type="line"/>
      <point x="138" y="481" type="line"/>
      <point x="67" y="552" type="line"/>
      <point x="92" y="577" type="line"/>
      <point x="163" y="506" type="line"/>
      <point x="415" y="506" type="line"/>
      <point x="486" y="577" type="line"/>
      <point x="511" y="552" type="line"/>
      <point x="440" y="481" type="line"/>
      <point x="440" y="219" type="line"/>
      <point x="511" y="148" type="line"/>
      <point x="486" y="123" type="line"/>
      <point x="415" y="194" type="line"/>
      <point x="163" y="194" type="line"/>
      <point x="92" y="123" type="line"/>
    </contour>
    <contour>
      <point x="175" y="269" type="line" smooth="yes"/>
      <point x="175" y="225"/>
      <point x="219" y="225" type="qcurve" smooth="yes"/>
      <point x="359" y="225" type="line" smooth="yes"/>
      <point x="403" y="225"/>
      <point x="403" y="269" type="qcurve" smooth="yes"/>
      <point x="403" y="431" type="line" smooth="yes"/>
      <point x="403" y="475"/>
      <point x="359" y="475" type="qcurve" smooth="yes"/>
      <point x="219" y="475" type="line" smooth="yes"/>
      <point x="175" y="475"/>
      <point x="175" y="431" type="qcurve" smooth="yes"/>
    </contour>
  </outline>
</glyph>
<glyph name="copyright" format="2">
  <advance width="838"/>
  <unicode hex="00A9"/>
  <outline>
    <contour>
      <point x="85" y="85" type="qcurve" smooth="yes"/>
      <point x="85" y="605" type="line" smooth="yes"/>
      <point x="85" y="690"/>
      <point x="170" y="690" type="qcurve" smooth="yes"/>
      <point x="668" y="690" type="line" smooth="yes"/>
      <point x="753" y="690"/>
      <point x="753" y="605" type="qcurve" smooth="yes"/>
      <point x="753" y="85" type="line" smooth="yes"/>
      <point x="753" y="0"/>
      <point x="668" y="0" type="qcurve" smooth="yes"/>
      <point x="170" y="0" type="line" smooth="yes"/>
      <point x="85" y="0"/>
    </contour>
    <contour>
      <point x="120" y="79" type="line" smooth="yes"/>
      <point x="120" y="31"/>
      <point x="167" y="31" type="qcurve" smooth="yes"/>
      <point x="670" y="31" type="line" smooth="yes"/>
      <point x="718" y="31"/>
      <point x="718" y="79" type="qcurve" smooth="yes"/>
      <point x="718" y="611" type="line" smooth="yes"/>
      <point x="718" y="659"/>
      <point x="670" y="659" type="qcurve" smooth="yes"/>
      <point x="167" y="659" type="line" smooth="yes"/>
      <point x="120" y="659"/>
      <point x="120" y="611" type="qcurve" smooth="yes"/>
    </contour>
    <contour>
      <point x="262" y="231" type="qcurve" smooth="yes"/>
      <point x="262" y="459" type="line" smooth="yes"/>
      <point x="262" y="545"/>
      <point x="348" y="545" type="qcurve" smooth="yes"/>
      <point x="523" y="545" type="line"/>
      <point x="546" y="527" type="line"/>
      <point x="546" y="511" type="line"/>
      <point x="345" y="511" type="line" smooth="yes"/>
      <point x="299" y="511"/>
      <point x="299" y="465" type="qcurve" smooth="yes"/>
      <point x="299" y="225" type="line" smooth="yes"/>
      <point x="299" y="179"/>
      <point x="345" y="179" type="qcurve" smooth="yes"/>
      <point x="546" y="179" type="line"/>
      <point x="546" y="163" type="line"/>
      <point x="523" y="145" type="line"/>
      <point x="348" y="145" type="line" smooth="yes"/>
      <point x="262" y="145"/>
    </contour>
  </outline>
</glyph>
<glyph name="logicalnot" format="2">
  <advance width="578"/>
  <unicode hex="00AC"/>
  <outline>
    <contour>
      <point x="66" y="364" type="line"/>
      <point x="66" y="406" type="line"/>
      <point x="512" y="406" type="line"/>
      <point x="512" y="152" type="line"/>
      <point x="468" y="152" type="line"/>
      <point x="468" y="364" type="line"/>
    </contour>
  </outline>
</glyph>
<glyph name="registered" format="2">
  <advance width="838"/>
  <unicode hex="00AE"/>
  <outline>
    <contour>
      <point x="85" y="85" type="qcurve" smooth="yes"/>
      <point x="85" y="605" type="line" smooth="yes"/>
      <point x="85" y="690"/>
      <point x="170" y="690" type="qcurve" smooth="yes"/>
      <point x="668" y="690" type="line" smooth="yes"/>
      <point x="753" y="690"/>
      <point x="753" y="605" type="qcurve" smooth="yes"/>
      <point x="753" y="85" type="line" smooth="yes"/>
      <point x="753" y="0"/>
      <point x="668" y="0" type="qcurve" smooth="yes"/>
      <point x="170" y="0" type="line" smooth="yes"/>
      <point x="85" y="0"/>
    </contour>
    <contour>
      <point x="120" y="79" type="line" smooth="yes"/>
      <point x="120" y="31"/>
      <point x="167" y="31" type="qcurve" smooth="yes"/>
      <point x="670" y="31" type="line" smooth="yes"/>
      <point x="718" y="31"/>
      <point x="718" y="79" type="qcurve" smooth="yes"/>
      <point x="718" y="611" type="line" smooth="yes"/>
      <point x="718" y="659"/>
      <point x="670" y="659" type="qcurve" smooth="yes"/>
      <point x="167" y="659" type="line" smooth="yes"/>
      <point x="120" y="659"/>
      <point x="120" y="611" type="qcurve" smooth="yes"/>
    </contour>
    <contour>
      <point x="283" y="145" type="line"/>
      <point x="283" y="545" type="line"/>
      <point x="477" y="545" type="line" smooth="yes"/>
      <point x="563" y="545"/>
      <point x="563" y="459" type="qcurve" smooth="yes"/>
      <point x="563" y="396" type="line" smooth="yes"/>
      <point x="563" y="320"/>
      <point x="497" y="311" type="qcurve"/>
      <point x="576" y="155" type="line"/>
      <point x="571" y="145" type="line"/>
      <point x="540" y="145" type="line"/>
      <point x="455" y="310" type="line"/>
      <point x="321" y="310" type="line"/>
      <point x="321" y="145" type="line"/>
    </contour>
    <contour>
      <point x="321" y="344" type="line"/>
      <point x="479" y="344" type="line" smooth="yes"/>
      <point x="525" y="344"/>
      <point x="525" y="390" type="qcurve" smooth="yes"/>
      <point x="525" y="465" type="line" smooth="yes"/>
      <point x="525" y="511"/>
      <point x="479" y="511" type="qcurve" smooth="yes"/>
      <point x="321" y="511" type="line"/>
    </contour>
  </outline>
</glyph>
<glyph name="plusminus" format="2">
  <advance width="578"/>
  <unicode hex="00B1"/>
  <outline>
    <contour>
      <point x="66" y="0" type="line"/>
      <point x="66" y="41" type="line"/>
      <point x="512" y="41" type="line"/>
      <point x="512" y="0" type="line"/>
    </contour>
    <contour>
      <point x="66" y="322" type="line"/>
      <point x="66" y="364" type="line"/>
      <point x="267" y="364" type="line"/>
      <point x="267" y="570" type="line"/>
      <point x="311" y="570" type="line"/>
      <point x="311" y="364" type="line"/>
      <point x="512" y="364" type="line"/>
      <point x="512" y="322" type="line"/>
      <point x="311" y="322" type="line"/>
      <point x="311" y="116" type="line"/>
      <point x="267" y="116" type="line"/>
      <point x="267" y="322" type="line"/>
    </contour>
  </outline>
</glyph>
<glyph name="uni00B2" format="2">
  <advance width="356"/>
  <unicode hex="00B2"/>
  <outline>
    <contour>
      <point x="44" y="284" type="line"/>
      <point x="44" y="400" type="line" smooth="yes"/>
      <point x="44" y="474"/>
      <point x="110" y="487" type="qcurve" smooth="yes"/>
      <point x="235" y="512" type="line" smooth="yes"/>
      <point x="275" y="520"/>
      <point x="275" y="559" type="qcurve" smooth="yes"/>
      <point x="275" y="610" type="line" smooth="yes"/>
      <point x="275" y="656"/>
      <point x="229" y="656" type="qcurve" smooth="yes"/>
      <point x="56" y="656" type="line"/>
      <point x="56" y="672" type="line"/>
      <point x="79" y="690" type="line"/>
      <point x="227" y="690" type="line" smooth="yes"/>
      <point x="313" y="690"/>
      <point x="313" y="604" type="qcurve" smooth="yes"/>
      <point x="313" y="567" type="line" smooth="yes"/>
      <point x="313" y="492"/>
      <point x="247" y="479" type="qcurve" smooth="yes"/>
      <point x="122" y="454" type="line" smooth="yes"/>
      <point x="81" y="446"/>
      <point x="81" y="407" type="qcurve" smooth="yes"/>
      <point x="81" y="318" type="line"/>
      <point x="313" y="318" type="line"/>
      <point x="313" y="284" type="line"/>
    </contour>
  </outline>
</glyph>
<glyph name="uni00B9" format="2">
  <advance width="356"/>
  <unicode hex="00B9"/>
  <outline>
    <contour>
      <point x="62" y="284" type="line"/>
      <point x="62" y="318" type="line"/>
      <point x="170" y="318" type="line"/>
      <point x="170" y="656" type="line"/>
      <point x="86" y="656" type="line"/>
      <point x="86" y="672" type="line"/>
      <point x="109" y="690" type="line"/>
      <point x="208" y="690" type="line"/>
      <point x="208" y="318" type="line"/>
      <point x="307" y="318" type="line"/>
      <point x="307" y="284" type="line"/>
    </contour>
  </outline>
</glyph>
<glyph name="questiondown" format="2">
  <advance width="466"/>
  <unicode hex="00BF"/>
  <outline>
    <contour>
      <point x="50" y="-31" type="qcurve" smooth="yes"/>
      <point x="50" y="63" type="line" smooth="yes"/>
      <point x="50" y="207"/>
      <point x="194" y="207" type="qcurve" smooth="yes"/>
      <point x="255" y="207" type="line"/>
      <point x="255" y="312" type="line"/>
      <point x="305" y="312" type="line"/>
      <point x="305" y="163" type="line"/>
      <point x="189" y="163" type="line" smooth="yes"/>
      <point x="98" y="163"/>
      <point x="98" y="72" type="qcurve" smooth="yes"/>
      <point x="98" y="-40" type="line" smooth="yes"/>
      <point x="98" y="-131"/>
      <point x="189" y="-131" type="qcurve" smooth="yes"/>
      <point x="446" y="-131" type="line"/>
      <point x="446" y="-150" type="line"/>
      <point x="414" y="-175" type="line"/>
      <point x="194" y="-175" type="line" smooth="yes"/>
      <point x="50" y="-175"/>
    </contour>
    <contour>
      <point x="248" y="430" type="line"/>
      <point x="248" y="515" type="line"/>
      <point x="314" y="515" type="line"/>
      <point x="314" y="430" type="line"/>
    </contour>
  </outline>
</glyph>
<glyph name="multiply" format="2">
  <advance width="578"/>
  <unicode hex="00D7"/>
  <outline>
    <contour>
      <point x="94" y="170" type="line"/>
      <point x="259" y="335" type="line"/>
      <point x="94" y="500" type="line"/>
      <point x="124" y="530" type="line"/>
      <point x="289" y="365" type="line"/>
      <point x="454" y="530" type="line"/>
      <point x="484" y="500" type="line"/>
      <point x="319" y="335" type="line"/>
      <point x="484" y="170" type="line"/>
      <point x="454" y="140" type="line"/>
      <point x="289" y="305" type="line"/>
      <point x="124" y="140" type="line"/>
    </contour>
  </outline>
</glyph>
<glyph name="Thorn" format="2">
  <advance width="625"/>
  <unicode hex="00DE"/>
  <outline>
    <contour>
      <point x="95" y="0" type="line"/>
      <point x="95" y="690" type="line"/>
      <point x="143" y="690" type="line"/>
      <point x="143" y="558" type="line"/>
      <point x="416" y="558" type="line" smooth="yes"/>
      <point x="560" y="558"/>
      <point x="560" y="414" type="qcurve" smooth="yes"/>
      <point x="560" y="290" type="line" smooth="yes"/>
      <point x="560" y="146"/>
      <point x="416" y="146" type="qcurve" smooth="yes"/>
      <point x="143" y="146" type="line"/>
      <point x="143" y="0" type="line"/>
    </contour>
    <contour>
      <point x="143" y="190" type="line"/>
      <point x="422" y="190" type="line" smooth="yes"/>
      <point x="512" y="190"/>
      <point x="512" y="280" type="qcurve" smooth="yes"/>
      <point x="512" y="424" type="line" smooth="yes"/>
      <point x="512" y="514"/>
      <point x="422" y="514" type="qcurve" smooth="yes"/>
      <point x="143" y="514" type="line"/>
    </contour>
  </outline>
</glyph>
<glyph name="germandbls" format="2">
  <advance width="591"/>
  <unicode hex="00DF"/>
  <outline>
    <contour>
      <point x="85" y="0" type="line"/>
      <point x="85" y="597" type="line" smooth="yes"/>
      <point x="85" y="740"/>
      <point x="228" y="740" type="qcurve" smooth="yes"/>
      <point x="352" y="740" type="line" smooth="yes"/>
      <point x="494" y="740"/>
      <point x="494" y="597" type="qcurve" smooth="yes"/>
      <point x="494" y="491" type="line" smooth="yes"/>
      <point x="494" y="457"/>
      <point x="474" y="433" type="qcurve" smooth="yes"/>
      <point x="439" y="391" type="line"/>
      <point x="481" y="356" type="line" smooth="yes"/>
      <point x="514" y="328"/>
      <point x="514" y="276" type="qcurve" smooth="yes"/>
      <point x="514" y="143" type="line" smooth="yes"/>
      <point x="514" y="0"/>
      <point x="372" y="0" type="qcurve" smooth="yes"/>
      <point x="265" y="0" type="line"/>
      <point x="237" y="21" type="line"/>
      <point x="237" y="40" type="line"/>
      <point x="376" y="40" type="line" smooth="yes"/>
      <point x="469" y="40"/>
      <point x="469" y="133" type="qcurve" smooth="yes"/>
      <point x="469" y="272" type="line" smooth="yes"/>
      <point x="469" y="365"/>
      <point x="376" y="365" type="qcurve" smooth="yes"/>
      <point x="247" y="365" type="line"/>
      <point x="247" y="405" type="line"/>
      <point x="356" y="405" type="line" smooth="yes"/>
      <point x="449" y="405"/>
      <point x="449" y="498" type="qcurve" smooth="yes"/>
      <point x="449" y="607" type="line" smooth="yes"/>
      <point x="449" y="700"/>
      <point x="356" y="700" type="qcurve" smooth="yes"/>
      <point x="223" y="700" type="line" smooth="yes"/>
      <point x="130" y="700"/>
      <point x="130" y="607" type="qcurve" smooth="yes"/>
      <point x="130" y="0" type="line"/>
    </contour>
  </outline>
</glyph>
<glyph name="ae" format="2">
  <advance width="881"/>
  <unicode hex="00E6"/>
  <outline>
    <contour>
      <point x="201" y="0" type="line" smooth="yes"/>
      <point x="57" y="0"/>
      <point x="57" y="292"/>
      <point x="201" y="292" type="qcurve" smooth="yes"/>
      <point x="405" y="292" type="line"/>
      <point x="405" y="382" type="line" smooth="yes"/>
      <point x="405" y="475"/>
      <point x="312" y="475" type="qcurve" smooth="yes"/>
      <point x="103" y="475" type="line"/>
      <point x="103" y="494" type="line"/>
      <point x="131" y="515" type="line"/>
      <point x="308" y="515" type="line" smooth="yes"/>
      <point x="393" y="515"/>
      <point x="428" y="463" type="qcurve"/>
      <point x="463" y="515"/>
      <point x="548" y="515" type="qcurve" smooth="yes"/>
      <point x="662" y="515" type="line" smooth="yes"/>
      <point x="804" y="515"/>
      <point x="804" y="372" type="qcurve" smooth="yes"/>
      <point x="804" y="239" type="line"/>
      <point x="450" y="239" type="line"/>
      <point x="450" y="133" type="line" smooth="yes"/>
      <point x="450" y="40"/>
      <point x="543" y="40" type="qcurve" smooth="yes"/>
      <point x="784" y="40" type="line"/>
      <point x="784" y="21" type="line"/>
      <point x="756" y="0" type="line"/>
      <point x="548" y="0" type="line" smooth="yes"/>
      <point x="463" y="0"/>
      <point x="428" y="52" type="qcurve"/>
      <point x="393" y="0"/>
      <point x="308" y="0" type="qcurve" smooth="yes"/>
    </contour>
    <contour>
      <point x="102" y="133" type="line" smooth="yes"/>
      <point x="102" y="40"/>
      <point x="195" y="40" type="qcurve" smooth="yes"/>
      <point x="312" y="40" type="line" smooth="yes"/>
      <point x="405" y="40"/>
      <point x="405" y="133" type="qcurve" smooth="yes"/>
      <point x="405" y="252" type="line"/>
      <point x="195" y="252" type="line" smooth="yes"/>
      <point x="102" y="252"/>
      <point x="102" y="159" type="qcurve" smooth="yes"/>
    </contour>
    <contour>
      <point x="450" y="279" type="line"/>
      <point x="759" y="279" type="line"/>
      <point x="759" y="382" type="line" smooth="yes"/>
      <point x="759" y="475"/>
      <point x="666" y="475" type="qcurve" smooth="yes"/>
      <point x="543" y="475" type="line" smooth="yes"/>
      <point x="450" y="475"/>
      <point x="450" y="382" type="qcurve" smooth="yes"/>
    </contour>
  </outline>
</glyph>
<glyph name="eth" format="2">
  <advance width="579"/>
  <unicode hex="00F0"/>
  <outline>
    <contour>
      <point x="77" y="143" type="qcurve" smooth="yes"/>
      <point x="77" y="307" type="line" smooth="yes"/>
      <point x="77" y="450"/>
      <point x="220" y="450" type="qcurve" smooth="yes"/>
      <point x="436" y="450" type="line"/>
      <point x="346" y="592" type="line"/>
      <point x="237" y="540" type="line"/>
      <point x="222" y="572" type="line"/>
      <point x="327" y="622" type="line"/>
      <point x="266" y="718" type="line"/>
      <point x="303" y="742" type="line"/>
      <point x="367" y="642" type="line"/>
      <point x="484" y="697" type="line"/>
      <point x="499" y="664" type="line"/>
      <point x="387" y="610" type="line"/>
      <point x="488" y="448" type="line" smooth="yes"/>
      <point x="502" y="426"/>
      <point x="502" y="388" type="qcurve" smooth="yes"/>
      <point x="502" y="143" type="line" smooth="yes"/>
      <point x="502" y="0"/>
      <point x="360" y="0" type="qcurve" smooth="yes"/>
      <point x="220" y="0" type="line" smooth="yes"/>
      <point x="77" y="0"/>
    </contour>
    <contour>
      <point x="122" y="133" type="line" smooth="yes"/>
      <point x="122" y="40"/>
      <point x="215" y="40" type="qcurve" smooth="yes"/>
      <point x="364" y="40" type="line" smooth="yes"/>
      <point x="457" y="40"/>
      <point x="457" y="133" type="qcurve" smooth="yes"/>
      <point x="457" y="410" type="line"/>
      <point x="215" y="410" type="line" smooth="yes"/>
      <point x="122" y="410"/>
      <point x="122" y="317" type="qcurve" smooth="yes"/>
    </contour>
  </outline>
</glyph>
<glyph name="dotlessi" format="2">
  <advance width="215"/>
  <unicode hex="0131"/>
  <outline>
    <contour>
      <point x="85" y="0" type="line"/>
      <point x="85" y="515" type="line"/>
      <point x="130" y="515" type="line"/>
      <point x="130" y="0" type="line"/>
    </contour>
  </outline>
</glyph>
<glyph name="florin" format="2">
  <advance width="565"/>
  <unicode hex="0192"/>
  <outline>
    <contour>
      <point x="40" y="-87" type="line"/>
      <point x="102" y="-87" type="line" smooth="yes"/>
      <point x="195" y="-87"/>
      <point x="195" y="6" type="qcurve" smooth="yes"/>
      <point x="195" y="597" type="line" smooth="yes"/>
      <point x="195" y="740"/>
      <point x="338" y="740" type="qcurve" smooth="yes"/>
      <point x="423" y="740" type="line"/>
      <point x="451" y="719" type="line"/>
      <point x="451" y="700" type="line"/>
      <point x="333" y="700" type="line" smooth="yes"/>
      <point x="240" y="700"/>
      <point x="240" y="607" type="qcurve" smooth="yes"/>
      <point x="240" y="515" type="line"/>
      <point x="441" y="515" type="line"/>
      <point x="441" y="475" type="line"/>
      <point x="240" y="475" type="line"/>
      <point x="240" y="16" type="line" smooth="yes"/>
      <point x="240" y="-127"/>
      <point x="97" y="-127" type="qcurve" smooth="yes"/>
      <point x="68" y="-127" type="line"/>
      <point x="40" y="-106" type="line"/>
    </contour>
  </outline>
</glyph>
<glyph name="uni0237" format="2">
  <advance width="215"/>
  <unicode hex="0237"/>
  <outline>
    <contour>
      <point x="-7" y="-168" type="line"/>
      <point x="85" y="-166"/>
      <point x="85" y="-74" type="qcurve" smooth="yes"/>
      <point x="85" y="515" type="line"/>
      <point x="130" y="515" type="line"/>
      <point x="130" y="-70" type="line" smooth="yes"/>
      <point x="130" y="-207"/>
      <point x="-7" y="-207" type="qcurve"/>
    </contour>
  </outline>
</glyph>
<glyph name="uni0301" format="2">
  <unicode hex="0301"/>
  <outline>
    <contour>
      <point x="-332" y="597" type="line"/>
      <point x="-208" y="734" type="line"/>
      <point x="-175" y="701" type="line"/>
      <point x="-305" y="571" type="line"/>
    </contour>
  </outline>
</glyph>
<glyph name="uni0302" format="2">
  <unicode hex="0302"/>
  <outline>
    <contour>
      <point x="-410" y="612" type="line"/>
      <point x="-284" y="735" type="line"/>
      <point x="-157" y="612" type="line"/>
      <point x="-184" y="583" type="line"/>
      <point x="-284" y="678" type="line"/>
      <point x="-383" y="583" type="line"/>
    </contour>
  </outline>
</glyph>
<glyph name="uni0303" format="2">
  <unicode hex="0303"/>
  <outline>
    <contour>
      <point x="-425" y="630" type="line"/>
      <point x="-380" y="675" type="line" smooth="yes"/>
      <point x="-356" y="698"/>
      <point x="-304" y="698"/>
      <point x="-282" y="675" type="qcurve" smooth="yes"/>
      <point x="-258" y="651" type="line" smooth="yes"/>
      <point x="-246" y="639"/>
      <point x="-226" y="639"/>
      <point x="-214" y="651" type="qcurve" smooth="yes"/>
      <point x="-169" y="696" type="line"/>
      <point x="-142" y="669" type="line"/>
      <point x="-187" y="624" type="line" smooth="yes"/>
      <point x="-210" y="601"/>
      <point x="-262" y="601"/>
      <point x="-285" y="624" type="qcurve" smooth="yes"/>
      <point x="-309" y="648" type="line" smooth="yes"/>
      <point x="-320" y="660"/>
      <point x="-340" y="660"/>
      <point x="-353" y="648" type="qcurve" smooth="yes"/>
      <point x="-398" y="603" type="line"/>
    </contour>
  </outline>
</glyph>
<glyph name="uni0307" format="2">
  <unicode hex="0307"/>
  <outline>
    <contour>
      <point x="-311" y="618" type="line"/>
      <point x="-311" y="687" type="line"/>
      <point x="-256" y="687" type="line"/>
      <point x="-256" y="618" type="line"/>
    </contour>
  </outline>
</glyph>
<glyph name="uni030A" format="2">
  <unicode hex="030A"/>
  <outline>
    <contour>
      <point x="-377" y="637" type="qcurve" smooth="yes"/>
      <point x="-377" y="694" type="line" smooth="yes"/>
      <point x="-377" y="757"/>
      <point x="-314" y="757" type="qcurve" smooth="yes"/>
      <point x="-253" y="757" type="line" smooth="yes"/>
      <point x="-190" y="757"/>
      <point x="-190" y="694" type="qcurve" smooth="yes"/>
      <point x="-190" y="637" type="line" smooth="yes"/>
      <point x="-190" y="574"/>
      <point x="-253" y="574" type="qcurve" smooth="yes"/>
      <point x="-314" y="574" type="line" smooth="yes"/>
      <point x="-377" y="574"/>
    </contour>
    <contour>
      <point x="-341" y="634" type="line" smooth="yes"/>
      <point x="-341" y="607"/>
      <point x="-314" y="607" type="qcurve" smooth="yes"/>
      <point x="-254" y="607" type="line" smooth="yes"/>
      <point x="-226" y="607"/>
      <point x="-226" y="634" type="qcurve" smooth="yes"/>
      <point x="-226" y="697" type="line" smooth="yes"/>
      <point x="-226" y="724"/>
      <point x="-254" y="724" type="qcurve" smooth="yes"/>
      <point x="-314" y="724" type="line" smooth="yes"/>
      <point x="-341" y="724"/>
      <point x="-341" y="697" type="qcurve" smooth="yes"/>
    </contour>
  </outline>
</glyph>
<glyph name="uni0327" format="2">
  <unicode hex="0327"/>
  <outline>
    <contour>
      <point x="-392" y="-141" type="line"/>
      <point x="-296" y="-141" type="line" smooth="yes"/>
      <point x="-250" y="-141"/>
      <point x="-250" y="-95" type="qcurve" smooth="yes"/>
      <point x="-250" y="20" type="line"/>
      <point x="-211" y="20" type="line"/>
      <point x="-211" y="-90" type="line" smooth="yes"/>
      <point x="-211" y="-176"/>
      <point x="-297" y="-176" type="qcurve" smooth="yes"/>
      <point x="-369" y="-176" type="line"/>
      <point x="-392" y="-159" type="line"/>
    </contour>
  </outline>
</glyph>
<glyph name="quoteright" format="2">
  <advance width="249"/>
  <unicode hex="2019"/>
  <outline>
    <contour>
      <point x="70" y="529" type="line"/>
      <point x="129" y="740" type="line"/>
      <point x="177" y="740" type="line"/>
      <point x="183" y="730" type="line"/>
      <point x="105" y="520" type="line"/>
    </contour>
  </outline>
</glyph>
<glyph name="quotesinglbase" format="2">
  <advance width="249"/>
  <unicode hex="201A"/>
  <outline>
    <contour>
      <point x="38" y="-126" type="line"/>
      <point x="97" y="86" type="line"/>
      <point x="144" y="86" type="line"/>
      <point x="150" y="76" type="line"/>
      <point x="73" y="-134" type="line"/>
    </contour>
  </outline>
</glyph>
<glyph name="dagger" format="2">
  <advance width="485"/>
  <unicode hex="2020"/>
  <outline>
    <contour>
      <point x="50" y="434" type="line"/>
      <point x="50" y="476" type="line"/>
      <point x="221" y="476" type="line"/>
      <point x="221" y="690" type="line"/>
      <point x="265" y="690" type="line"/>
      <point x="265" y="476" type="line"/>
      <point x="435" y="476" type="line"/>
      <point x="435" y="434" type="line"/>
      <point x="265" y="434" type="line"/>
      <point x="265" y="-100" type="line"/>
      <point x="221" y="-100" type="line"/>
      <point x="221" y="434" type="line"/>
    </contour>
  </outline>
</glyph>
<glyph name="daggerdbl" format="2">
  <advance width="485"/>
  <unicode hex="2021"/>
  <outline>
    <contour>
      <point x="50" y="114" type="line"/>
      <point x="50" y="156" type="line"/>
      <point x="221" y="156" type="line"/>
      <point x="221" y="434" type="line"/>
      <point x="50" y="434" type="line"/>
      <point x="50" y="476" type="line"/>
      <point x="221" y="476" type="line"/>
      <point x="221" y="690" type="line"/>
      <point x="265" y="690" type="line"/>
      <point x="265" y="476" type="line"/>
      <point x="435" y="476" type="line"/>
      <point x="435" y="434" type="line"/>
      <point x="265" y="434" type="line"/>
      <point x="265" y="156" type="line"/>
      <point x="435" y="156" type="line"/>
      <point x="435" y="114" type="line"/>
      <point x="265" y="114" type="line"/>
      <point x="265" y="-100" type="line"/>
      <point x="221" y="-100" type="line"/>
      <point x="221" y="114" type="line"/>
    </contour>
  </outline>
</glyph>
<glyph name="guilsinglleft" format="2">
  <advance width="273"/>
  <unicode hex="2039"/>
  <outline>
    <contour>
      <point x="30" y="315" type="line"/>
      <point x="202" y="532" type="line"/>
      <point x="233" y="506" type="line"/>
      <point x="85" y="315" type="line"/>
      <point x="233" y="124" type="line"/>
      <point x="202" y="98" type="line"/>
    </contour>
  </outline>
</glyph>
<glyph name="guilsinglright" format="2">
  <advance width="273"/>
  <unicode hex="203A"/>
  <outline>
    <contour>
      <point x="40" y="124" type="line"/>
      <point x="188" y="315" type="line"/>
      <point x="40" y="506" type="line"/>
      <point x="71" y="532" type="line"/>
      <point x="243" y="315" type="line"/>
      <point x="71" y="98" type="line"/>
    </contour>
  </outline>
</glyph>
<glyph name="fraction" format="2">
  <advance width="134"/>
  <unicode hex="2044"/>
  <outline>
    <contour>
      <point x="-116" y="24" type="line"/>
      <point x="214" y="684" type="line"/>
      <point x="250" y="666" type="line"/>
      <point x="-80" y="6" type="line"/>
    </contour>
  </outline>
</glyph>
<glyph name="uni2070" format="2">
  <advance width="356"/>
  <unicode hex="2070"/>
  <outline>
    <contour>
      <point x="44" y="370" type="qcurve" smooth="yes"/>
      <point x="44" y="604" type="line" smooth="yes"/>
      <point x="44" y="690"/>
      <point x="130" y="690" type="qcurve" smooth="yes"/>
      <point x="227" y="690" type="line" smooth="yes"/>
      <point x="313" y="690"/>
      <point x="313" y="604" type="qcurve" smooth="yes"/>
      <point x="313" y="370" type="line" smooth="yes"/>
      <point x="313" y="284"/>
      <point x="227" y="284" type="qcurve" smooth="yes"/>
      <point x="130" y="284" type="line" smooth="yes"/>
      <point x="44" y="284"/>
    </contour>
    <contour>
      <point x="81" y="364" type="line" smooth="yes"/>
      <point x="81" y="318"/>
      <point x="127" y="318" type="qcurve" smooth="yes"/>
      <point x="229" y="318" type="line" smooth="yes"/>
      <point x="275" y="318"/>
      <point x="275" y="364" type="qcurve" smooth="yes"/>
      <point x="275" y="610" type="line" smooth="yes"/>
      <point x="275" y="656"/>
      <point x="229" y="656" type="qcurve" smooth="yes"/>
      <point x="127" y="656" type="line" smooth="yes"/>
      <point x="81" y="656"/>
      <point x="81" y="610" type="qcurve" smooth="yes"/>
    </contour>
  </outline>
</glyph>
<glyph name="Euro" format="2">
  <advance width="578"/>
  <unicode hex="20AC"/>
  <outline>
    <contour>
      <point x="40" y="259" type="line"/>
      <point x="40" y="300" type="line"/>
      <point x="111" y="300" type="line"/>
      <point x="111" y="390" type="line"/>
      <point x="40" y="390" type="line"/>
      <point x="40" y="431" type="line"/>
      <point x="111" y="431" type="line"/>
      <point x="111" y="546" type="line" smooth="yes"/>
      <point x="111" y="690"/>
      <point x="255" y="690" type="qcurve" smooth="yes"/>
      <point x="496" y="690" type="line"/>
      <point x="528" y="665" type="line"/>
      <point x="528" y="646" type="line"/>
      <point x="250" y="646" type="line" smooth="yes"/>
      <point x="159" y="646"/>
      <point x="159" y="556" type="qcurve" smooth="yes"/>
      <point x="159" y="431" type="line"/>
      <point x="454" y="431" type="line"/>
      <point x="454" y="390" type="line"/>
      <point x="159" y="390" type="line"/>
      <point x="159" y="300" type="line"/>
      <point x="410" y="300" type="line"/>
      <point x="410" y="259" type="line"/>
      <point x="159" y="259" type="line"/>
      <point x="159" y="134" type="line" smooth="yes"/>
      <point x="159" y="44"/>
      <point x="250" y="44" type="qcurve" smooth="yes"/>
      <point x="528" y="44" type="line"/>
      <point x="528" y="25" type="line"/>
      <point x="496" y="0" type="line"/>
      <point x="255" y="0" type="line" smooth="yes"/>
      <point x="111" y="0"/>
      <point x="111" y="144" type="qcurve" smooth="yes"/>
      <point x="111" y="259" type="line"/>
    </contour>
  </outline>
</glyph>
<glyph name="uni20BA" format="2">
  <advance width="578"/>
  <unicode hex="20BA"/>
  <outline>
    <contour>
      <point x="25" y="298" type="line"/>
      <point x="131" y="341" type="line"/>
      <point x="131" y="427" type="line"/>
      <point x="41" y="390" type="line"/>
      <point x="25" y="429" type="line"/>
      <point x="131" y="472" type="line"/>
      <point x="131" y="690" type="line"/>
      <point x="179" y="690" type="line"/>
      <point x="179" y="491" type="line"/>
      <point x="384" y="574" type="line"/>
      <point x="400" y="534" type="line"/>
      <point x="179" y="446" type="line"/>
      <point x="179" y="360" type="line"/>
      <point x="384" y="443" type="line"/>
      <point x="400" y="403" type="line"/>
      <point x="179" y="315" type="line"/>
      <point x="179" y="44" type="line"/>
      <point x="289" y="44" type="line" smooth="yes"/>
      <point x="472" y="44"/>
      <point x="472" y="227" type="qcurve" smooth="yes"/>
      <point x="472" y="300" type="line"/>
      <point x="517" y="300" type="line"/>
      <point x="517" y="231" type="line" smooth="yes"/>
      <point x="517" y="0"/>
      <point x="286" y="0" type="qcurve" smooth="yes"/>
      <point x="131" y="0" type="line"/>
      <point x="131" y="296" type="line"/>
      <point x="41" y="259" type="line"/>
    </contour>
  </outline>
</glyph>
<glyph name="trademark" format="2">
  <advance width="775"/>
  <unicode hex="2122"/>
  <outline>
    <contour>
      <point x="20" y="659" type="line"/>
      <point x="20" y="690" type="line"/>
      <point x="299" y="690" type="line"/>
      <point x="299" y="659" type="line"/>
      <point x="177" y="659" type="line"/>
      <point x="177" y="344" type="line"/>
      <point x="142" y="344" type="line"/>
      <point x="142" y="659" type="line"/>
    </contour>
    <contour>
      <point x="360" y="344" type="line"/>
      <point x="360" y="690" type="line"/>
      <point x="410" y="690" type="line"/>
      <point x="535" y="424" type="line"/>
      <point x="660" y="690" type="line"/>
      <point x="710" y="690" type="line"/>
      <point x="710" y="344" type="line"/>
      <point x="675" y="344" type="line"/>
      <point x="675" y="646" type="line"/>
      <point x="555" y="389" type="line"/>
      <point x="515" y="389" type="line"/>
      <point x="395" y="646" type="line"/>
      <point x="395" y="344" type="line"/>
    </contour>
  </outline>
</glyph>
<glyph name="partialdiff" format="2">
  <advance width="573"/>
  <unicode hex="2202"/>
  <outline>
    <contour>
      <point x="77" y="143" type="qcurve" smooth="yes"/>
      <point x="77" y="305" type="line" smooth="yes"/>
      <point x="77" y="448"/>
      <point x="220" y="448" type="qcurve" smooth="yes"/>
      <point x="447" y="448" type="line"/>
      <point x="447" y="538" type="line" smooth="yes"/>
      <point x="447" y="700"/>
      <point x="285" y="700" type="qcurve" smooth="yes"/>
      <point x="121" y="700" type="line"/>
      <point x="121" y="719" type="line"/>
      <point x="149" y="740" type="line"/>
      <point x="288" y="740" type="line" smooth="yes"/>
      <point x="492" y="740"/>
      <point x="492" y="536" type="qcurve" smooth="yes"/>
      <point x="492" y="143" type="line" smooth="yes"/>
      <point x="492" y="0"/>
      <point x="350" y="0" type="qcurve" smooth="yes"/>
      <point x="220" y="0" type="line" smooth="yes"/>
      <point x="77" y="0"/>
    </contour>
    <contour>
      <point x="122" y="133" type="line" smooth="yes"/>
      <point x="122" y="40"/>
      <point x="215" y="40" type="qcurve" smooth="yes"/>
      <point x="354" y="40" type="line" smooth="yes"/>
      <point x="447" y="40"/>
      <point x="447" y="133" type="qcurve" smooth="yes"/>
      <point x="447" y="408" type="line"/>
      <point x="215" y="408" type="line" smooth="yes"/>
      <point x="122" y="408"/>
      <point x="122" y="315" type="qcurve" smooth="yes"/>
    </contour>
  </outline>
</glyph>
<glyph name="integral" format="2">
  <advance width="385"/>
  <unicode hex="222B"/>
  <outline>
    <contour>
      <point x="20" y="-160" type="line"/>
      <point x="77" y="-160" type="line" smooth="yes"/>
      <point x="170" y="-160"/>
      <point x="170" y="-67" type="qcurve" smooth="yes"/>
      <point x="170" y="597" type="line" smooth="yes"/>
      <point x="170" y="740"/>
      <point x="313" y="740" type="qcurve" smooth="yes"/>
      <point x="337" y="740" type="line"/>
      <point x="365" y="719" type="line"/>
      <point x="365" y="700" type="line"/>
      <point x="308" y="700" type="line" smooth="yes"/>
      <point x="215" y="700"/>
      <point x="215" y="607" type="qcurve" smooth="yes"/>
      <point x="215" y="-57" type="line" smooth="yes"/>
      <point x="215" y="-200"/>
      <point x="72" y="-200" type="qcurve" smooth="yes"/>
      <point x="48" y="-200" type="line"/>
      <point x="20" y="-179" type="line"/>
    </contour>
  </outline>
</glyph>
<glyph name="notequal" format="2">
  <advance width="578"/>
  <unicode hex="2260"/>
  <outline>
    <contour>
      <point x="66" y="204" type="line"/>
      <point x="66" y="246" type="line"/>
      <point x="222" y="246" type="line"/>
      <point x="313" y="424" type="line"/>
      <point x="66" y="424" type="line"/>
      <point x="66" y="466" type="line"/>
      <point x="334" y="466" type="line"/>
      <point x="401" y="598" type="line"/>
      <point x="435" y="581" type="line"/>
      <point x="377" y="466" type="line"/>
      <point x="512" y="466" type="line"/>
      <point x="512" y="424" type="line"/>
      <point x="356" y="424" type="line"/>
      <point x="265" y="246" type="line"/>
      <point x="512" y="246" type="line"/>
      <point x="512" y="204" type="line"/>
      <point x="244" y="204" type="line"/>
      <point x="177" y="72" type="line"/>
      <point x="143" y="89" type="line"/>
      <point x="201" y="204" type="line"/>
    </contour>
  </outline>
</glyph>
<glyph name="greaterequal" format="2">
  <advance width="578"/>
  <unicode hex="2265"/>
  <outline>
    <contour>
      <point x="66" y="0" type="line"/>
      <point x="66" y="41" type="line"/>
      <point x="512" y="41" type="line"/>
      <point x="512" y="0" type="line"/>
    </contour>
    <contour>
      <point x="70" y="133" type="line"/>
      <point x="475" y="323" type="line"/>
      <point x="70" y="512" type="line"/>
      <point x="88" y="550" type="line"/>
      <point x="514" y="346" type="line"/>
      <point x="514" y="299" type="line"/>
      <point x="88" y="95" type="line"/>
    </contour>
  </outline>
</glyph>
<glyph name=".notdef" format="2">
  <advance width="581"/>
  <outline>
    <contour>
      <point x="100" y="0" type="line"/>
      <point x="100" y="740" type="line"/>
      <point x="482" y="740" type="line"/>
      <point x="482" y="0" type="line"/>
    </contour>
    <contour>
      <point x="132" y="32" type="line"/>
      <point x="450" y="32" type="line"/>
      <point x="450" y="708" type="line"/>
      <point x="132" y="708" type="line"/>
    </contour>
  </outline>
</glyph>
<glyph name="uni0301.cap" format="2">
  <outline>
    <contour>
      <point x="-362" y="762" type="line"/>
      <point x="-238" y="899" type="line"/>
      <point x="-205" y="866" type="line"/>
      <point x="-334" y="735" type="line"/>
    </contour>
  </outline>
</glyph>
<glyph name="uni0302.cap" format="2">
  <outline>
    <contour>
      <point x="-441" y="776" type="line"/>
      <point x="-314" y="900" type="line"/>
      <point x="-187" y="776" type="line"/>
      <point x="-214" y="748" type="line"/>
      <point x="-314" y="843" type="line"/>
      <point x="-414" y="748" type="line"/>
    </contour>
  </outline>
</glyph>
<glyph name="uni0307.cap" format="2">
  <outline>
    <contour>
      <point x="-342" y="783" type="line"/>
      <point x="-342" y="852" type="line"/>
      <point x="-287" y="852" type="line"/>
      <point x="-287" y="783" type="line"/>
    </contour>
  </outline>
</glyph>
<glyph name="uni0308.cap" format="2">
  <outline>
    <contour>
      <point x="-425" y="785" type="line"/>
      <point x="-425" y="851" type="line"/>
      <point x="-370" y="851" type="line"/>
      <point x="-370" y="785" type="line"/>
    </contour>
    <contour>
      <point x="-258" y="785" type="line"/>
      <point x="-258" y="851" type="line"/>
      <point x="-203" y="851" type="line"/>
      <point x="-203" y="785" type="line"/>
    </contour>
  </outline>
</glyph>
<glyph name="uni030A.cap" format="2">
  <outline>
    <contour>
      <point x="-407" y="801" type="qcurve" smooth="yes"/>
      <point x="-407" y="858" type="line" smooth="yes"/>
      <point x="-407" y="921"/>
      <point x="-344" y="921" type="qcurve" smooth="yes"/>
      <point x="-283" y="921" type="line" smooth="yes"/>
      <point x="-220" y="921"/>
      <point x="-220" y="858" type="qcurve" smooth="yes"/>
      <point x="-220" y="801" type="line" smooth="yes"/>
      <point x="-220" y="738"/>
      <point x="-283" y="738" type="qcurve" smooth="yes"/>
      <point x="-344" y="738" type="line" smooth="yes"/>
      <point x="-407" y="738"/>
    </contour>
    <contour>
      <point x="-371" y="798" type="line" smooth="yes"/>
      <point x="-371" y="771"/>
      <point x="-344" y="771" type="qcurve" smooth="yes"/>
      <point x="-284" y="771" type="line" smooth="yes"/>
      <point x="-256" y="771"/>
      <point x="-256" y="798" type="qcurve" smooth="yes"/>
      <point x="-256" y="861" type="line" smooth="yes"/>
      <point x="-256" y="888"/>
      <point x="-284" y="888" type="qcurve" smooth="yes"/>
      <point x="-344" y="888" type="line" smooth="yes"/>
      <point x="-371" y="888"/>
      <point x="-371" y="861" type="qcurve" smooth="yes"/>
    </contour>
  </outline>
</glyph>
<glyph name="uni030B.cap" format="2">
  <outline>
    <contour>
      <point x="-420" y="761" type="line"/>
      <point x="-311" y="900" type="line"/>
      <point x="-273" y="867" type="line"/>
      <point x="-392" y="734" type="line"/>
    </contour>
    <contour>
      <point x="-267" y="761" type="line"/>
      <point x="-158" y="900" type="line"/>
      <point x="-120" y="867" type="line"/>
      <point x="-239" y="734" type="line"/>
    </contour>
  </outline>
</glyph>
<glyph name="uni030C.cap" format="2">
  <outline>
    <contour>
      <point x="-441" y="862" type="line"/>
      <point x="-414" y="890" type="line"/>
      <point x="-314" y="795" type="line"/>
      <point x="-214" y="890" type="line"/>
      <point x="-187" y="862" type="line"/>
      <point x="-314" y="738" type="line"/>
    </contour>
  </outline>
</glyph>
